<?xml version="1.0" encoding="utf-8"?>
<!-- Generator: Adobe Illustrator 19.0.0, SVG Export Plug-In . SVG Version: 6.00 Build 0)  -->
<svg version="1.1" id="Layer_1" xmlns="http://www.w3.org/2000/svg" xmlns:xlink="http://www.w3.org/1999/xlink" x="0px" y="0px"
	 viewBox="0 0 500 500" style="enable-background:new 0 0 500 500;" xml:space="preserve">
<style type="text/css">
	.st0{fill:#F04E98;}
	.st1{fill:#00A9E5;}
	.st2{fill:#FED10A;}
	.st3{fill:#00BFB3;}
</style>
<g id="XMLID_1_">
	<path id="XMLID_3_" class="st0" d="M67.5,219.2c0-4.2,3.5-7.7,7.7-7.7h61.5c4.2,0,7.7,3.5,7.7,7.7v15.4H67.5V219.2z"/>
	<path id="XMLID_4_" class="st1" d="M67.5,265.4H104v23.1H75.2c-4.1,0-7.7-3.4-7.7-7.5V265.4z"/>
	<path id="XMLID_5_" class="st2" d="M107.9,265.4h36.5v15.4c0,4.1-3.6,7.7-7.7,7.7h-28.8V265.4z"/>
	<rect id="XMLID_6_" x="67.5" y="238.5" class="st3" width="76.9" height="23.1"/>
	<path id="XMLID_9_" d="M176.4,261.4c-3.8,0-6.9-1.2-9.1-3.4c-2.2-2.2-3.3-5.4-3.3-9.3c0-4,1.1-7.3,3.1-9.6c2-2.3,4.8-3.5,8.4-3.5
		c3.3,0,5.9,1,7.8,3c1.9,2,2.9,4.7,2.9,8.3v2.9h-16.6c0.1,2.4,0.8,4.2,1.9,5.6c1.2,1.3,3,1.9,5.2,1.9c1.4,0,2.9-0.1,4.1-0.4
		c1.2-0.3,2.6-0.8,4.1-1.3v4.3c-1.2,0.6-2.6,1.1-3.9,1.3S178,261.4,176.4,261.4z M175.3,239.7c-1.7,0-3.1,0.6-4,1.6
		c-1,1.1-1.6,2.6-1.8,4.7h11.3c0-2-0.5-3.7-1.4-4.7C178.4,240.3,177.1,239.7,175.3,239.7z"/>
	<rect id="XMLID_10_" x="192" y="226" width="5.3" height="35.1"/>
	<path id="XMLID_13_" d="M220.5,261.1l-1.1-3.5h-0.2c-1.2,1.5-2.4,2.6-3.7,3.1c-1.2,0.5-2.8,0.9-4.7,0.9c-2.4,0-4.3-0.7-5.8-2
		c-1.4-1.3-2-3.2-2-5.6c0-2.6,1-4.5,2.9-5.8s4.8-2,8.7-2.1l4.3-0.1v-1.3c0-1.6-0.4-2.8-1.2-3.6c-0.8-0.8-1.9-1.2-3.5-1.2
		c-1.2,0-2.5,0.2-3.7,0.6c-1.2,0.4-2.3,0.9-3.4,1.3l-1.7-3.7c1.3-0.7,2.8-1.2,4.4-1.6c1.6-0.4,3.1-0.6,4.5-0.6
		c3.2,0,5.6,0.7,7.2,2.1c1.6,1.4,2.4,3.6,2.4,6.5v16.5H220.5z M212.6,257.4c1.9,0,3.5-0.6,4.6-1.6c1.2-1.1,1.7-2.6,1.7-4.5v-2.1
		l-3.2,0.1c-2.5,0.1-4.3,0.5-5.5,1.2c-1.2,0.8-1.7,1.9-1.7,3.5c0,1.2,0.3,2,1,2.6C210.2,257.1,211.3,257.4,212.6,257.4z"/>
	<path id="XMLID_14_" d="M248.4,253.9c0,2.4-0.9,4.3-2.7,5.6c-1.8,1.2-4.3,1.9-7.6,1.9c-3.4,0-6-0.5-8-1.5v-4.6c2.9,1.3,5.7,2,8.2,2
		c3.3,0,4.9-1,4.9-3c0-0.7-0.2-1.2-0.6-1.5s-1-0.9-1.8-1.3c-0.9-0.5-2-1-3.5-1.5c-2.9-1.2-4.8-2.2-5.9-3.4c-1.1-1.2-1.5-2.6-1.5-4.3
		c0-2.1,0.9-3.7,2.6-5c1.7-1.2,4-1.7,7-1.7c2.9,0,5.7,0.6,8.3,1.8l-1.7,3.9c-2.7-1.2-4.9-1.6-6.8-1.6c-2.8,0-4.2,0.8-4.2,2.4
		c0,0.8,0.4,1.4,1.1,2c0.7,0.6,2.3,1.2,4.8,2.2c2,0.8,3.6,1.5,4.5,2.2c1,0.7,1.6,1.4,2.1,2.3C248.2,251.7,248.4,252.7,248.4,253.9z"
		/>
	<path id="XMLID_15_" d="M263.4,257.2c1.2,0,2.6-0.2,3.8-0.6v3.9c-0.6,0.3-1.3,0.5-2.3,0.7s-1.9,0.3-2.9,0.3c-5,0-7.5-2.7-7.5-7.9
		v-13.5h-3.4v-2.3l3.7-1.9l1.8-5.3h3.3v5.6h7.1v4h-7.1v13.4c0,1.2,0.3,2.2,1,2.8C261.5,257,262.4,257.2,263.4,257.2z"/>
	<path id="XMLID_18_" d="M271.9,229.5c0-1,0.3-1.6,0.8-2.2c0.5-0.6,1.2-0.8,2.2-0.8c1,0,1.6,0.3,2.2,0.8c0.6,0.5,0.8,1.2,0.8,2.2
		c0,0.9-0.3,1.6-0.8,2.1s-1.2,0.8-2.2,0.8c-1,0-1.7-0.3-2.2-0.8C272.2,231.2,271.9,230.4,271.9,229.5z M277.6,261.1h-5.3v-24.9h5.3
		V261.1z"/>
	<path id="XMLID_19_" d="M295.2,261.4c-3.7,0-6.6-1.1-8.6-3.3c-1.9-2.2-3-5.4-3-9.5c0-4.2,1.1-7.4,3.1-9.7c2-2.3,5-3.4,8.8-3.4
		c2.6,0,5,0.5,7.1,1.4l-1.6,4.2c-2.2-0.9-4-1.3-5.6-1.3c-4.3,0-6.4,2.9-6.4,8.6c0,2.8,0.6,4.9,1.6,6.3c1.1,1.4,2.7,2.1,4.7,2.1
		c2.4,0,4.6-0.6,6.7-1.7v4.6c-1,0.6-1.9,1-3.1,1.2C297.9,261.1,296.7,261.4,295.2,261.4z"/>
	<path id="XMLID_20_" d="M336.7,253.9c0,2.4-0.9,4.3-2.7,5.6c-1.8,1.2-4.3,1.9-7.6,1.9c-3.4,0-6-0.5-8-1.5v-4.6c2.9,1.3,5.7,2,8.2,2
		c3.3,0,4.9-1,4.9-3c0-0.7-0.2-1.2-0.6-1.5c-0.4-0.4-1-0.9-1.8-1.3c-0.9-0.5-2-1-3.5-1.5c-2.9-1.2-4.8-2.2-5.9-3.4
		c-1.1-1.2-1.5-2.6-1.5-4.3c0-2.1,0.9-3.7,2.6-5c1.7-1.2,4-1.7,7-1.7c2.9,0,5.7,0.6,8.3,1.8l-1.7,3.9c-2.7-1.2-4.9-1.6-6.8-1.6
		c-2.8,0-4.2,0.8-4.2,2.4c0,0.8,0.4,1.4,1.1,2c0.7,0.6,2.3,1.2,4.8,2.2c2,0.8,3.6,1.5,4.5,2.2c1,0.7,1.6,1.4,2.1,2.3
		C336.5,251.7,336.7,252.7,336.7,253.9z"/>
	<path id="XMLID_21_" d="M351.7,257.2c1.2,0,2.6-0.2,3.8-0.6v3.9c-0.6,0.3-1.3,0.5-2.3,0.7s-1.9,0.3-2.9,0.3c-5,0-7.5-2.7-7.5-7.9
		v-13.5h-3.4v-2.3l3.7-1.9l1.8-5.3h3.3v5.6h7.1v4h-7.1v13.4c0,1.2,0.3,2.2,1,2.8S350.6,257.2,351.7,257.2z"/>
	<path id="XMLID_24_" d="M376.1,261.1l-1.1-3.5h-0.2c-1.2,1.5-2.4,2.6-3.7,3.1c-1.2,0.5-2.8,0.9-4.7,0.9c-2.4,0-4.3-0.7-5.8-2
		c-1.4-1.3-2-3.2-2-5.6c0-2.6,1-4.5,2.9-5.8c1.9-1.2,4.8-2,8.7-2.1l4.3-0.1v-1.3c0-1.6-0.4-2.8-1.2-3.6c-0.8-0.8-1.9-1.2-3.5-1.2
		c-1.2,0-2.5,0.2-3.7,0.6c-1.2,0.4-2.3,0.9-3.4,1.3l-1.7-3.7c1.3-0.7,2.8-1.2,4.4-1.6c1.6-0.4,3.1-0.6,4.5-0.6
		c3.2,0,5.6,0.7,7.2,2.1c1.6,1.4,2.4,3.6,2.4,6.5v16.5H376.1z M368.2,257.4c1.9,0,3.5-0.6,4.6-1.6s1.7-2.6,1.7-4.5v-2.1l-3.2,0.1
		c-2.5,0.1-4.3,0.5-5.5,1.2c-1.2,0.8-1.7,1.9-1.7,3.5c0,1.2,0.3,2,1,2.6C365.8,257.1,366.9,257.4,368.2,257.4z"/>
	<path id="XMLID_25_" d="M397.3,261.4c-3.7,0-6.6-1.1-8.6-3.3c-1.9-2.2-3-5.4-3-9.5c0-4.2,1.1-7.4,3.1-9.7c2-2.3,5-3.4,8.8-3.4
		c2.6,0,5,0.5,7.1,1.4l-1.6,4.2c-2.2-0.9-4-1.3-5.6-1.3c-4.3,0-6.4,2.9-6.4,8.6c0,2.8,0.6,4.9,1.6,6.3c1.1,1.4,2.7,2.1,4.7,2.1
		c2.4,0,4.6-0.6,6.7-1.7v4.6c-1,0.6-1.9,1-3.1,1.2C400,261.1,398.9,261.4,397.3,261.4z"/>
	<polygon id="XMLID_26_" points="415.2,247.9 418.2,244.1 425.7,236.2 431.8,236.2 421.8,246.8 432.5,261.1 426.3,261.1 
		418.3,250.1 415.4,252.5 415.4,261.1 410.1,261.1 410.1,226 415.4,226 415.4,243.1 415.1,247.9 	"/>
</g>
</svg>
