<?xml version="1.0" encoding="utf-8"?>
<!-- Generator: Adobe Illustrator 19.0.0, SVG Export Plug-In . SVG Version: 6.00 Build 0)  -->
<svg version="1.1" id="Layer_1" xmlns="http://www.w3.org/2000/svg" xmlns:xlink="http://www.w3.org/1999/xlink" x="0px" y="0px"
	 viewBox="0 0 500 500" style="enable-background:new 0 0 500 500;" xml:space="preserve">
<style type="text/css">
	.st0{fill:#326DE6;}
	.st1{fill:#FFFFFF;}
</style>
<g id="XMLID_1_">
	<path id="XMLID_2_" class="st0" d="M184,422c-8.5,0-16.5-3.8-21.9-10.6L79.5,308.8c-5.4-6.8-7.6-15.6-5.4-24.1l29.5-128.2
		c1.9-8.5,7.6-15.3,15.3-19.1l119.4-57.1c3.8-1.9,8-2.8,12.3-2.8c4.2,0,8.5,0.9,12.3,2.8l119.4,56.9c7.8,3.8,13.5,10.6,15.3,19.1
		l29.5,128.2c1.9,8.5,0,17.2-5.4,24.1l-82.6,102.7c-5.4,6.6-13.5,10.6-21.9,10.6L184,422z"/>
	<path id="XMLID_3_" class="st1" d="M250.4,83.4c3.3,0,6.6,0.7,9.7,2.1l119.4,56.9c6.1,3.1,10.9,8.7,12.3,15.3l29.5,128.2
		c1.7,6.8,0,13.9-4.5,19.4l-82.6,102.7c-4.2,5.4-10.9,8.5-17.7,8.5H184c-6.8,0-13.5-3.1-17.7-8.5L83.7,305.2
		c-4.2-5.4-5.9-12.5-4.5-19.4l29.5-128.2c1.7-6.8,6.1-12.5,12.3-15.3l119.4-57.1C243.5,84.1,247,83.4,250.4,83.4z M250.4,72.3
		L250.4,72.3c-5,0-9.9,1.2-14.6,3.3l-119.4,57.1c-9.4,4.5-16,12.7-18.4,22.9L68.4,283.7c-2.4,10.1,0,20.5,6.6,28.8l82.6,102.7
		c6.4,8,16,12.5,26.2,12.5h132.4c10.1,0,19.8-4.5,26.2-12.5L425,312.5c6.6-8,9-18.6,6.6-28.8l-29.5-128.2
		c-2.4-10.1-9-18.4-18.4-22.9L264.8,75.6C260.3,73.5,255.3,72.3,250.4,72.3z"/>
	<path id="XMLID_6_" class="st1" d="M370,275.7L370,275.7C369.8,275.7,369.8,275.7,370,275.7h-0.2c-0.2,0-0.5,0-0.5-0.2
		c-0.5,0-0.9-0.2-1.4-0.2c-1.7-0.2-3.1-0.5-4.5-0.5c-0.7,0-1.4,0-2.4-0.2h-0.2c-5-0.5-9-0.9-12.7-2.1c-1.7-0.7-2.1-1.7-2.6-2.6
		c0-0.2-0.2-0.2-0.2-0.5l-3.1-0.9c1.4-10.9,0.9-22.2-1.7-33.3c-2.6-11.1-7.1-21.5-13.2-30.9l2.4-2.1v-0.5c0-1.2,0.2-2.4,1.2-3.5
		c2.8-2.6,6.4-4.7,10.6-7.3c0.7-0.5,1.4-0.7,2.1-1.2c1.4-0.7,2.6-1.4,4-2.4c0.2-0.2,0.7-0.5,1.2-0.9c0.2-0.2,0.5-0.2,0.5-0.5
		c3.3-2.8,4-7.6,1.7-10.6c-1.2-1.7-3.3-2.6-5.4-2.6c-1.9,0-3.5,0.7-5.2,1.9c-0.2,0.2-0.2,0.2-0.5,0.5c-0.5,0.2-0.7,0.7-1.2,0.9
		c-1.2,1.2-2.1,2.1-3.1,3.3c-0.5,0.5-0.9,1.2-1.7,1.7c-3.3,3.5-6.4,6.4-9.4,8.5c-0.7,0.5-1.4,0.7-2.1,0.7c-0.5,0-0.9,0-1.4-0.2h-0.5
		l-2.8,1.9c-3.1-3.3-6.4-6.1-9.7-9c-14.2-11.1-31.4-17.9-49.3-19.6l-0.2-3.1c-0.2-0.2-0.2-0.2-0.5-0.5c-0.7-0.7-1.7-1.4-1.9-3.1
		c-0.2-3.8,0.2-8,0.7-12.7v-0.2c0-0.7,0.2-1.7,0.5-2.4c0.2-1.4,0.5-2.8,0.7-4.5v-1.4v-0.7c0-4.2-3.3-7.8-7.3-7.8
		c-1.9,0-3.8,0.9-5.2,2.4c-1.4,1.4-2.1,3.3-2.1,5.4v0.5v1.4c0,1.7,0.2,3.1,0.7,4.5c0.2,0.7,0.2,1.4,0.5,2.4v0.2
		c0.5,4.7,1.2,9,0.7,12.7c-0.2,1.7-1.2,2.4-1.9,3.1c-0.2,0.2-0.2,0.2-0.5,0.5l-0.2,3.1c-4.2,0.5-8.5,0.9-12.7,1.9
		c-18.2,4-34.2,13.2-46.7,26.4l-2.4-1.7h-0.5c-0.5,0-0.9,0.2-1.4,0.2c-0.7,0-1.4-0.2-2.1-0.7c-3.1-2.1-6.1-5.2-9.4-8.7
		c-0.5-0.5-0.9-1.2-1.7-1.7c-0.9-1.2-1.9-2.1-3.1-3.3c-0.2-0.2-0.7-0.5-1.2-0.9c-0.2-0.2-0.5-0.2-0.5-0.5c-1.4-1.2-3.3-1.9-5.2-1.9
		c-2.1,0-4.2,0.9-5.4,2.6c-2.4,3.1-1.7,7.8,1.7,10.6c0.2,0,0.2,0.2,0.5,0.2c0.5,0.2,0.7,0.7,1.2,0.9c1.4,0.9,2.6,1.7,4,2.4
		c0.7,0.2,1.4,0.7,2.1,1.2c4.2,2.6,7.8,4.7,10.6,7.3c1.2,1.2,1.2,2.4,1.2,3.5v0.5l2.4,2.1c-0.5,0.7-0.9,1.2-1.2,1.9
		c-11.8,18.6-16.3,40.6-13.2,62.3l-3.1,0.9c0,0.2-0.2,0.2-0.2,0.5c-0.5,0.9-1.2,1.9-2.6,2.6c-3.5,1.2-7.8,1.7-12.7,2.1h-0.2
		c-0.7,0-1.7,0-2.4,0.2c-1.4,0-2.8,0.2-4.5,0.5c-0.5,0-0.9,0.2-1.4,0.2c-0.2,0-0.5,0-0.7,0.2c-4.2,0.9-6.8,5-6.1,8.7
		c0.7,3.3,3.8,5.4,7.6,5.4c0.7,0,1.2,0,1.9-0.2c0.2,0,0.5,0,0.5-0.2c0.5,0,0.9-0.2,1.4-0.2c1.7-0.5,2.8-0.9,4.2-1.7
		c0.7-0.2,1.4-0.7,2.1-0.9h0.2c4.5-1.7,8.5-3.1,12.3-3.5h0.5c1.4,0,2.4,0.7,3.1,1.2c0.2,0,0.2,0.2,0.5,0.2l3.3-0.5
		c5.7,17.5,16.5,33,30.9,44.4c3.3,2.6,6.6,4.7,10.1,6.8l-1.4,3.1c0,0.2,0.2,0.2,0.2,0.5c0.5,0.9,0.9,2.1,0.5,3.8
		c-1.4,3.5-3.5,7.1-6.1,11.1v0.2c-0.5,0.7-0.9,1.2-1.4,1.9c-0.9,1.2-1.7,2.4-2.6,3.8c-0.2,0.2-0.5,0.7-0.7,1.2
		c0,0.2-0.2,0.5-0.2,0.5c-1.9,4-0.5,8.5,3.1,10.1c0.9,0.5,1.9,0.7,2.8,0.7c2.8,0,5.7-1.9,7.1-4.5c0-0.2,0.2-0.5,0.2-0.5
		c0.2-0.5,0.5-0.9,0.7-1.2c0.7-1.7,0.9-2.8,1.4-4.2c0.2-0.7,0.5-1.4,0.7-2.1c1.7-4.7,2.8-8.5,5-11.8c0.9-1.4,2.1-1.7,3.1-2.1
		c0.2,0,0.2,0,0.5-0.2l1.7-3.1c10.4,4,21.7,6.1,33,6.1c6.8,0,13.9-0.7,20.5-2.4c4.2-0.9,8.3-2.1,12.3-3.5l1.4,2.6
		c0.2,0,0.2,0,0.5,0.2c1.2,0.2,2.1,0.7,3.1,2.1c1.9,3.3,3.3,7.3,5,11.8v0.2c0.2,0.7,0.5,1.4,0.7,2.1c0.5,1.4,0.7,2.8,1.4,4.2
		c0.2,0.5,0.5,0.7,0.7,1.2c0,0.2,0.2,0.5,0.2,0.5c1.4,2.8,4.2,4.5,7.1,4.5c0.9,0,1.9-0.2,2.8-0.7c1.7-0.9,3.1-2.4,3.5-4.2
		c0.5-1.9,0.5-4-0.5-5.9c0-0.2-0.2-0.2-0.2-0.5c-0.2-0.5-0.5-0.9-0.7-1.2c-0.7-1.4-1.7-2.6-2.6-3.8c-0.5-0.7-0.9-1.2-1.4-1.9v-0.2
		c-2.6-4-5-7.6-6.1-11.1c-0.5-1.7,0-2.6,0.2-3.8c0-0.2,0.2-0.2,0.2-0.5l-1.2-2.8c12.5-7.3,23.1-17.7,31.2-30.4
		c4.2-6.6,7.6-13.9,9.9-21.2l2.8,0.5c0.2,0,0.2-0.2,0.5-0.2c0.9-0.5,1.7-1.2,3.1-1.2h0.5c3.8,0.5,7.8,1.9,12.3,3.5h0.2
		c0.7,0.2,1.4,0.7,2.1,0.9c1.4,0.7,2.6,1.2,4.2,1.7c0.5,0,0.9,0.2,1.4,0.2c0.2,0,0.5,0,0.7,0.2c0.7,0.2,1.2,0.2,1.9,0.2
		c3.5,0,6.6-2.4,7.6-5.4C376.9,280.7,374.3,276.9,370,275.7z M260.7,264.2l-10.4,5l-10.4-5l-2.6-11.1l7.1-9H256l7.1,9L260.7,264.2z
		 M322.3,239.6c1.9,8,2.4,16,1.7,23.8l-36.1-10.4c-3.3-0.9-5.2-4.2-4.5-7.6c0.2-0.9,0.7-1.9,1.4-2.6l28.6-25.7
		C317.4,223.8,320.4,231.4,322.3,239.6z M302,203L271.1,225c-2.6,1.7-6.1,1.2-8.3-1.4c-0.7-0.7-0.9-1.7-1.2-2.6l-2.1-38.5
		C275.8,184.4,290.7,191.7,302,203z M233.6,183.7c2.6-0.5,5-0.9,7.6-1.4L239,220c-0.2,3.3-2.8,6.1-6.4,6.1c-0.9,0-2.1-0.2-2.8-0.7
		L198.4,203C208.1,193.4,220.1,186.8,233.6,183.7z M187.1,217.2l28.1,25c2.6,2.1,2.8,6.1,0.7,8.7c-0.7,0.9-1.7,1.7-2.8,1.9
		l-36.6,10.6C175.1,247.4,178.6,231.1,187.1,217.2z M180.7,281.2l37.5-6.4c3.1-0.2,5.9,1.9,6.6,5c0.2,1.4,0.2,2.6-0.2,3.8
		l-14.4,34.7C197,309.7,186.4,296.7,180.7,281.2z M266.9,328.1c-5.4,1.2-10.9,1.9-16.5,1.9c-8.3,0-16.3-1.4-23.8-3.8l18.6-33.7
		c1.9-2.1,5-3.1,7.6-1.7c1.2,0.7,2.1,1.7,2.8,2.6l18.2,32.8C271.6,326.9,269.2,327.4,266.9,328.1z M312.9,295.3
		c-5.9,9.4-13.7,17-22.7,22.9l-14.9-35.6c-0.7-2.8,0.5-5.9,3.3-7.3c0.9-0.5,2.1-0.7,3.3-0.7l37.8,6.4
		C318.3,286.1,316,290.8,312.9,295.3z"/>
</g>
</svg>
